<svg width="28" height="28" viewBox="0 0 28 28" fill="none" xmlns="http://www.w3.org/2000/svg">
<path d="M28.0002 19C27.9911 20.436 27.6397 21.8491 26.9753 23.1222C26.3109 24.3953 25.3525 25.4916 24.1796 26.3202C23.0068 27.1488 21.6533 27.6858 20.2314 27.8868C18.8095 28.0877 17.3602 27.9467 16.0037 27.4755C17.3537 26.3637 18.4177 24.9445 19.1063 23.3368C19.7949 21.7292 20.0882 19.9799 19.9615 18.2355C22.2143 16.7733 23.8579 14.541 24.5852 11.9555C25.6492 12.7958 26.5091 13.8661 27.1006 15.0861C27.692 16.3061 27.9995 17.6442 28.0002 19Z" fill="#666666"/>
<path d="M17.9879 19.2405C17.9492 20.7538 17.5293 22.2329 16.767 23.5408C16.0047 24.8487 14.9246 25.943 13.6268 26.7224C12.3291 27.5018 10.8556 27.9411 9.34293 27.9996C7.83024 28.0581 6.32726 27.7339 4.9732 27.057C3.61915 26.3801 2.45781 25.3724 1.59678 24.1273C0.735753 22.8822 0.202873 21.4399 0.0475049 19.9341C-0.107863 18.4283 0.119306 16.9076 0.70797 15.5129C1.29663 14.1183 2.22775 12.8947 3.41507 11.9556C3.83629 13.4285 4.55912 14.7978 5.53769 15.9765C6.51625 17.1553 7.72918 18.1177 9.09949 18.8027C10.4698 19.4877 11.9675 19.8804 13.4977 19.9557C15.0278 20.0311 16.5569 19.7875 17.9879 19.2405Z" fill="#666666"/>
<path d="M5 9C5 7.21997 5.52784 5.47991 6.51677 3.99987C7.50571 2.51983 8.91131 1.36628 10.5558 0.685088C12.2004 0.00389951 14.01 -0.17433 15.7558 0.172936C17.5016 0.520203 19.1053 1.37737 20.364 2.63604C21.6226 3.89471 22.4798 5.49836 22.8271 7.24419C23.1743 8.99002 22.9961 10.7996 22.3149 12.4442C21.6337 14.0887 20.4802 15.4943 19.0001 16.4832C17.5201 17.4722 15.78 18 14 18C11.6139 17.9974 9.32622 17.0483 7.63896 15.361C5.95171 13.6738 5.00265 11.3861 5 9Z" fill="#666666"/>
</svg>
