<svg width="18" height="23" viewBox="0 0 18 23" fill="none" xmlns="http://www.w3.org/2000/svg">
<path d="M3.64614 22.4933H14.3537C16.5133 22.4933 17.6283 21.3582 17.6283 19.1886V10.1986H10.0948C8.83922 10.1986 8.23654 9.59597 8.23654 8.34039V0.726547H3.64614C1.49658 0.726547 0.371582 1.86159 0.371582 4.04128V19.1886C0.371582 21.3582 1.49658 22.4933 3.64614 22.4933ZM10.2856 8.73213H17.5278C17.4676 8.27007 17.1361 7.83815 16.6138 7.30579L11.1194 1.74106C10.6171 1.22878 10.1651 0.887262 9.70306 0.826994V8.14954C9.7131 8.54128 9.90395 8.73213 10.2856 8.73213ZM5.10261 14.6484C4.67069 14.6484 4.35931 14.337 4.35931 13.9353C4.35931 13.5335 4.67069 13.2221 5.10261 13.2221H12.9274C13.3392 13.2221 13.6606 13.5335 13.6606 13.9353C13.6606 14.337 13.3392 14.6484 12.9274 14.6484H5.10261ZM5.10261 18.4152C4.67069 18.4152 4.35931 18.1038 4.35931 17.702C4.35931 17.3002 4.67069 16.9888 5.10261 16.9888H12.9274C13.3392 16.9888 13.6606 17.3002 13.6606 17.702C13.6606 18.1038 13.3392 18.4152 12.9274 18.4152H5.10261Z" fill="#666666"/>
</svg>
