<svg width="104" height="121" viewBox="0 0 104 121" fill="none" xmlns="http://www.w3.org/2000/svg">
<g filter="url(#filter0_d_896_3896)">
<path d="M22.7778 34.1272L27.7093 43.3323L30.7589 36.973L22.7778 34.1272Z" fill="#005BB3"/>
<path d="M93.2724 50.456L66.7422 104.951C65.7558 106.978 63.3155 107.822 61.2934 106.838L12.8211 83.2401C10.7989 82.2556 9.95875 79.8137 10.9451 77.7875L45.0194 7.79589C46.0058 5.76976 48.4461 4.92485 50.4683 5.90932L82.1416 21.3289L93.2724 50.456Z" fill="white"/>
<path d="M58.2351 51.5935L23.3788 34.6242C22.5399 34.2159 22.1908 33.2012 22.6 32.3607L30.1148 16.9246C30.524 16.0841 31.538 15.733 32.3768 16.1414L67.2331 33.1106C68.0719 33.519 68.421 34.5337 68.0119 35.3742L60.497 50.8103C60.0879 51.6508 59.0739 52.0018 58.2351 51.5935Z" fill="#0283FF"/>
<path d="M33.618 35.116L38.0567 25.9984L34.9636 24.4925L35.749 22.8791L43.8377 26.8169L43.0559 28.4228L39.9627 26.917L35.5203 36.0421L33.618 35.116Z" fill="white"/>
<path d="M38.9281 37.7015L44.6689 33.6549L44.3471 27.0653L46.4591 28.0935L46.4769 31.0448C46.4875 31.3656 46.4906 31.6827 46.4826 32.0037C46.482 32.3283 46.4818 32.6903 46.4932 33.0857L46.5606 33.1185C46.8488 32.8689 47.1111 32.6346 47.3513 32.4267C47.5916 32.2187 47.8356 32.0219 48.0796 31.8251L50.3687 29.9968L52.3833 30.9777L46.9579 34.8714L47.3539 41.8034L45.2418 40.7752L45.1623 37.6082C45.1588 37.2538 45.1517 36.9069 45.1557 36.5561C45.1561 36.2128 45.1561 35.8322 45.1484 35.4293L45.081 35.3965C44.7779 35.6574 44.497 35.8919 44.2345 36.1076C43.972 36.3233 43.7059 36.5464 43.4397 36.7696L40.9428 38.6823L38.9281 37.7015Z" fill="white"/>
<path d="M50.7691 43.4657L55.2079 34.3481L52.1147 32.8423L52.9001 31.2289L60.9888 35.1667L60.207 36.7726L57.1139 35.2668L52.6714 44.3919L50.7691 43.4657Z" fill="white"/>
<path d="M93.2719 50.456L92.9943 51.0263L74.7648 42.1516C73.3717 41.4734 72.7999 39.7933 73.4794 38.3975L81.8564 21.1904L82.141 21.329L93.2719 50.456Z" fill="#E6E7E8"/>
<path d="M71.4069 69.1449L36.2436 52.0262L37.7231 48.987L72.8865 66.1057L72.894 66.1094L71.4144 69.1486L71.4069 69.1449Z" fill="#E6E7E8"/>
<path d="M67.9982 76.1464L32.8349 59.0277L34.3145 55.9885L69.4778 73.1072L69.4853 73.1108L68.0057 76.15L67.9982 76.1464Z" fill="#E6E7E8"/>
<path d="M64.5937 83.1404L29.4303 66.0217L30.9062 62.99L66.0696 80.1087L66.0771 80.1124L64.6012 83.144L64.5937 83.1404Z" fill="#E6E7E8"/>
<path d="M61.1848 90.1416L26.0214 73.0228L27.501 69.9836L62.6643 87.1024L62.6718 87.106L61.1923 90.1452L61.1848 90.1416Z" fill="#E6E7E8"/>
</g>
<defs>
<filter id="filter0_d_896_3896" x="8.33321" y="5.49835" width="94.9559" height="115.188" filterUnits="userSpaceOnUse" color-interpolation-filters="sRGB">
<feFlood flood-opacity="0" result="BackgroundImageFix"/>
<feColorMatrix in="SourceAlpha" type="matrix" values="0 0 0 0 0 0 0 0 0 0 0 0 0 0 0 0 0 0 127 0" result="hardAlpha"/>
<feOffset dx="3.90893" dy="7.32924"/>
<feGaussianBlur stdDeviation="3.05385"/>
<feComposite in2="hardAlpha" operator="out"/>
<feColorMatrix type="matrix" values="0 0 0 0 0 0 0 0 0 0 0 0 0 0 0 0 0 0 0.4 0"/>
<feBlend mode="normal" in2="BackgroundImageFix" result="effect1_dropShadow_896_3896"/>
<feBlend mode="normal" in="SourceGraphic" in2="effect1_dropShadow_896_3896" result="shape"/>
</filter>
</defs>
</svg>
