<svg width="85" height="102" viewBox="0 0 85 102" fill="none" xmlns="http://www.w3.org/2000/svg">
<g filter="url(#filter0_d_896_3911)">
<path d="M10.0801 37.9503L18.5807 44.0681L18.5389 37.0156L10.0801 37.9503Z" fill="#BF9017"/>
<path d="M80.9214 21.7755V82.3858C80.9214 84.6393 79.0891 86.4671 76.83 86.4671H22.6802C20.4212 86.4671 18.5889 84.6393 18.5889 82.3858L18.5889 4.54053C18.5889 2.28705 20.4212 0.459229 22.6802 0.459229L58.0634 0.459229L80.9214 21.7755Z" fill="white"/>
<path d="M49.7803 38.134H10.8413C9.9042 38.134 9.14282 37.3745 9.14282 36.4397L9.14282 19.2715C9.14282 18.3367 9.9042 17.5772 10.8413 17.5772L49.7803 17.5772C50.7174 17.5772 51.4787 18.3367 51.4787 19.2715V36.4397C51.4787 37.3745 50.7174 38.134 49.7803 38.134Z" fill="#D8A521"/>
<path d="M17.5348 34.3197C16.6897 34.3197 15.9786 34.1527 15.4012 33.8105C14.8239 33.4683 14.347 32.9676 13.9622 32.2915L15.4263 31.2149C15.669 31.6489 15.9535 31.9744 16.2714 32.1747C16.5893 32.375 16.9324 32.4751 17.2921 32.4751C17.8527 32.4751 18.2711 32.3082 18.5555 31.966C18.84 31.6238 18.9739 31.0312 18.9739 30.1799V22.1675H21.099V30.3635C21.099 30.9144 21.0321 31.4235 20.8982 31.9076C20.7644 32.3917 20.5468 32.809 20.254 33.1679C19.9611 33.5268 19.593 33.8105 19.1412 34.0192C18.6894 34.2111 18.1539 34.3197 17.5348 34.3197Z" fill="white"/>
<path d="M24.0779 34.0941L24.0779 22.159H27.8429C28.5039 22.159 29.1147 22.2174 29.6836 22.3426C30.2526 22.4678 30.7378 22.6681 31.1562 22.9602C31.5745 23.2524 31.8925 23.6363 32.1267 24.1037C32.361 24.5711 32.4781 25.1553 32.4781 25.848C32.4781 26.5074 32.361 27.0749 32.1267 27.5674C31.8925 28.0514 31.5745 28.4604 31.1646 28.7776C30.7546 29.1031 30.2777 29.3368 29.7171 29.487C29.1649 29.6372 28.5625 29.7123 27.9182 29.7123H26.1947L26.1947 34.0941H24.0779ZM26.203 28.0181H27.7593C29.5163 28.0181 30.3948 27.2919 30.3948 25.848C30.3948 25.0969 30.1689 24.5711 29.7087 24.2873C29.2486 24.0035 28.5792 23.8616 27.684 23.8616H26.203V28.0181Z" fill="white"/>
<path d="M39.7402 34.3192C38.937 34.3192 38.184 34.1857 37.4979 33.9186C36.8118 33.6515 36.2094 33.2593 35.7074 32.7334C35.1971 32.2076 34.8038 31.565 34.5277 30.7971C34.2432 30.0293 34.1094 29.1529 34.1094 28.1681C34.1094 27.1915 34.2516 26.3235 34.5444 25.5473C34.8373 24.7711 35.2389 24.1201 35.7409 23.586C36.2429 23.0518 36.8453 22.6429 37.5314 22.3591C38.2175 22.0753 38.9621 21.9418 39.757 21.9418C40.6104 21.9418 41.3299 22.1004 41.924 22.4092C42.518 22.718 43.0033 23.0685 43.3798 23.4608L42.2419 24.8296C41.9407 24.5374 41.5977 24.2871 41.2295 24.0868C40.8614 23.8864 40.3928 23.7863 39.8323 23.7863C39.2968 23.7863 38.8115 23.8864 38.3764 24.0868C37.9414 24.2871 37.5732 24.5708 37.2637 24.9464C36.9541 25.3136 36.7114 25.7727 36.5441 26.3069C36.3768 26.841 36.2847 27.4419 36.2847 28.1096C36.2847 29.4701 36.5943 30.5384 37.2051 31.3146C37.8242 32.0908 38.7362 32.4747 39.941 32.4747C40.2841 32.4747 40.602 32.433 40.9116 32.3412C41.2128 32.2494 41.4638 32.1158 41.6646 31.9489V29.3783H39.3972V27.6422H43.5722V32.9004C43.1706 33.301 42.6351 33.6432 41.9742 33.9103C41.3048 34.1773 40.5602 34.3192 39.7402 34.3192Z" fill="white"/>
<path d="M80.9221 21.7754V22.4097H60.5573C59.0011 22.4097 57.7461 21.1494 57.7461 19.597V0.459106H58.064L80.9221 21.7754Z" fill="#E6E7E8"/>
<path d="M69.3919 48.1497H30.1099V44.7695H69.3919H69.4003V48.1497H69.3919Z" fill="#E6E7E8"/>
<path d="M69.3919 55.9367H30.1099V52.5565H69.3919H69.4003V55.9367H69.3919Z" fill="#E6E7E8"/>
<path d="M69.3922 63.7151H30.1101V60.3432H69.3922H69.4005V63.7151H69.3922Z" fill="#E6E7E8"/>
<path d="M69.3919 71.5022H30.1099V68.1219H69.3919H69.4003V71.5022H69.3919Z" fill="#E6E7E8"/>
</g>
<defs>
<filter id="filter0_d_896_3911" x="0.592039" y="0.459106" width="83.9947" height="101.155" filterUnits="userSpaceOnUse" color-interpolation-filters="sRGB">
<feFlood flood-opacity="0" result="BackgroundImageFix"/>
<feColorMatrix in="SourceAlpha" type="matrix" values="0 0 0 0 0 0 0 0 0 0 0 0 0 0 0 0 0 0 127 0" result="hardAlpha"/>
<feOffset dx="-2.44308" dy="9.0394"/>
<feGaussianBlur stdDeviation="3.05385"/>
<feComposite in2="hardAlpha" operator="out"/>
<feColorMatrix type="matrix" values="0 0 0 0 0 0 0 0 0 0 0 0 0 0 0 0 0 0 0.4 0"/>
<feBlend mode="normal" in2="BackgroundImageFix" result="effect1_dropShadow_896_3911"/>
<feBlend mode="normal" in="SourceGraphic" in2="effect1_dropShadow_896_3911" result="shape"/>
</filter>
</defs>
</svg>
