<svg width="105" height="118" viewBox="0 0 105 118" fill="none" xmlns="http://www.w3.org/2000/svg">
<g filter="url(#filter0_d_896_3881)">
<path d="M15.5784 61.9292L25.7651 64.4898L23.1398 57.944L15.5784 61.9292Z" fill="#BA1E2A"/>
<path d="M75.8438 20.7883L98.0701 77.1763C98.8964 79.2728 97.8545 81.6482 95.7436 82.4802L45.1441 102.425C43.0332 103.257 40.6508 102.231 39.8244 100.135L11.2779 27.7126C10.4515 25.6161 11.4934 23.2407 13.6044 22.4086L46.6676 9.3762L75.8438 20.7883Z" fill="white"/>
<path d="M52.7426 47.4777L16.3566 61.8198C15.481 62.165 14.491 61.7388 14.1482 60.8692L7.85251 44.897C7.50972 44.0273 7.94266 43.0403 8.8183 42.6952L45.2042 28.353C46.0799 28.0079 47.0699 28.434 47.4126 29.3037L53.7084 45.2759C54.0512 46.1455 53.6182 47.1325 52.7426 47.4777Z" fill="#ED1B24"/>
<path d="M19.9104 56.0764L15.5337 44.9728L19.0519 43.586C19.6695 43.3426 20.2617 43.172 20.8392 43.0789C21.4168 42.9858 21.9437 42.9934 22.4417 43.1111C22.9398 43.2288 23.3776 43.4689 23.7679 43.8174C24.1582 44.1659 24.4819 44.6663 24.736 45.3108C24.9778 45.9242 25.0764 46.4954 25.0381 47.0398C24.9967 47.5764 24.8496 48.074 24.5828 48.5201C24.3191 48.9739 23.9591 49.367 23.4904 49.7132C23.0295 50.0564 22.4941 50.3481 21.8921 50.5854L20.2816 51.2203L21.8884 55.2968L19.9104 56.0764ZM19.6681 49.6409L21.1223 49.0677C22.7641 48.4206 23.3187 47.4215 22.7892 46.0781C22.5138 45.3793 22.1099 44.9733 21.5758 44.8788C21.0417 44.7843 20.3643 44.8989 19.5277 45.2286L18.1439 45.774L19.6681 49.6409Z" fill="white"/>
<path d="M29.863 52.1534L25.4863 41.0497L28.4807 39.8695C30.1929 39.1946 31.7026 39.1288 33.0254 39.666C34.3481 40.2032 35.3668 41.3896 36.0891 43.2221C36.4503 44.1383 36.6435 44.9952 36.6796 45.7973C36.7127 46.5917 36.5857 47.3236 36.308 47.9713C36.0335 48.6267 35.6161 49.1949 35.0543 49.6945C34.4924 50.1941 33.7956 50.6033 32.9669 50.93L29.863 52.1534ZM31.2136 49.782L32.0892 49.4368C33.2307 48.9869 33.9778 48.3156 34.3305 47.423C34.6833 46.5304 34.5903 45.4008 34.0516 44.0342C33.516 42.6753 32.8224 41.8094 31.9568 41.4239C31.0944 41.0462 30.1041 41.0776 28.9705 41.5245L28.0948 41.8696L31.2136 49.782Z" fill="white"/>
<path d="M40.5427 47.9441L36.166 36.8405L42.9209 34.1779L43.5759 35.8395L38.8068 37.7194L40.0464 40.8641L44.1118 39.2616L44.7668 40.9233L40.7013 42.5258L42.5285 47.1614L40.5427 47.9441Z" fill="white"/>
<path d="M75.8437 20.7884L76.0763 21.3785L57.0467 28.8793C55.5925 29.4525 53.9577 28.7423 53.3884 27.298L46.3704 9.49335L46.6675 9.37624L75.8437 20.7884Z" fill="#E6E7E8"/>
<path d="M74.7422 49.5717L38.0357 64.0402L36.7961 60.8954L73.5026 46.4269L73.5105 46.4239L74.75 49.5686L74.7422 49.5717Z" fill="#E6E7E8"/>
<path d="M77.5979 56.8164L40.8914 71.2849L39.6519 68.1402L76.3583 53.6717L76.3662 53.6686L77.6057 56.8134L77.5979 56.8164Z" fill="#E6E7E8"/>
<path d="M80.4503 64.053L43.7438 78.5215L42.5073 75.3845L79.2138 60.916L79.2216 60.9129L80.4581 64.0499L80.4503 64.053Z" fill="#E6E7E8"/>
<path d="M83.3062 71.2976L46.5997 85.7661L45.3601 82.6214L82.0666 68.1529L82.0744 68.1498L83.314 71.2945L83.3062 71.2976Z" fill="#E6E7E8"/>
</g>
<defs>
<filter id="filter0_d_896_3881" x="1.3831" y="9.37622" width="102.834" height="108.485" filterUnits="userSpaceOnUse" color-interpolation-filters="sRGB">
<feFlood flood-opacity="0" result="BackgroundImageFix"/>
<feColorMatrix in="SourceAlpha" type="matrix" values="0 0 0 0 0 0 0 0 0 0 0 0 0 0 0 0 0 0 127 0" result="hardAlpha"/>
<feOffset dx="-0.244308" dy="9.0394"/>
<feGaussianBlur stdDeviation="3.05385"/>
<feComposite in2="hardAlpha" operator="out"/>
<feColorMatrix type="matrix" values="0 0 0 0 0 0 0 0 0 0 0 0 0 0 0 0 0 0 0.4 0"/>
<feBlend mode="normal" in2="BackgroundImageFix" result="effect1_dropShadow_896_3881"/>
<feBlend mode="normal" in="SourceGraphic" in2="effect1_dropShadow_896_3881" result="shape"/>
</filter>
</defs>
</svg>
