<svg width="29" height="241" viewBox="0 0 29 241" fill="none" xmlns="http://www.w3.org/2000/svg">
<g filter="url(#filter0_b_896_3426)">
<path fill-rule="evenodd" clip-rule="evenodd" d="M0.0789795 13.7472C0.0789795 9.07756 0.0789795 6.74272 0.98776 4.95914C1.78714 3.39026 3.06269 2.11472 4.63157 1.31534C6.41515 0.406555 8.74999 0.406555 13.4197 0.406555H15.0872C19.7569 0.406555 22.0918 0.406555 23.8754 1.31534C25.4442 2.11472 26.7198 3.39026 27.5192 4.95914C28.4279 6.74272 28.4279 9.07756 28.4279 13.7472V227.198C28.4279 231.868 28.4279 234.203 27.5192 235.986C26.7198 237.555 25.4442 238.831 23.8754 239.63C22.0918 240.539 19.7569 240.539 15.0873 240.539H13.4197C8.74999 240.539 6.41515 240.539 4.63157 239.63C3.06269 238.831 1.78714 237.555 0.98776 235.986C0.0789795 234.203 0.0789795 231.868 0.0789795 227.198V13.7472Z" fill="black" fill-opacity="0.364909"/>
</g>
<path fill-rule="evenodd" clip-rule="evenodd" d="M14.2533 225.531C16.0953 225.531 17.5885 224.037 17.5885 222.196C17.5885 220.354 16.0953 218.86 14.2533 218.86C12.4114 218.86 10.9181 220.354 10.9181 222.196C10.9181 224.037 12.4114 225.531 14.2533 225.531ZM14.2533 226.364C16.5558 226.364 18.4223 224.498 18.4223 222.196C18.4223 219.893 16.5558 218.027 14.2533 218.027C11.9509 218.027 10.0844 219.893 10.0844 222.196C10.0844 224.498 11.9509 226.364 14.2533 226.364Z" fill="white"/>
<rect x="13.4197" y="37.0936" width="1.66759" height="166.759" rx="0.833793" fill="#D1D1D6"/>
<rect x="13.4197" y="120.473" width="1.66759" height="83.3793" rx="0.833793" fill="#0C7BEE"/>
<path fill-rule="evenodd" clip-rule="evenodd" d="M14.2535 9.16138C14.4838 9.16138 14.6704 9.34803 14.6704 9.57827V11.2459C14.6704 11.4761 14.4838 11.6628 14.2535 11.6628C14.0233 11.6628 13.8366 11.4761 13.8366 11.2459V9.57827C13.8366 9.34803 14.0233 9.16138 14.2535 9.16138ZM7.47184 11.9683C7.63465 11.8055 7.89861 11.8055 8.06142 11.9683L9.2454 13.1523C9.40821 13.3151 9.40821 13.5791 9.2454 13.7419C9.0826 13.9047 8.81863 13.9047 8.65582 13.7419L7.47184 12.5579C7.30903 12.3951 7.30903 12.1311 7.47184 11.9683ZM21.0352 11.9683C21.198 12.1311 21.198 12.3951 21.0352 12.5579L19.8513 13.7419C19.6884 13.9047 19.4245 13.9047 19.2617 13.7419C19.0989 13.5791 19.0989 13.3151 19.2617 13.1523L20.4457 11.9683C20.6085 11.8055 20.8724 11.8055 21.0352 11.9683ZM14.2535 14.9979C12.1813 14.9979 10.5015 16.6778 10.5015 18.75C10.5015 20.8222 12.1813 22.5021 14.2535 22.5021C16.3257 22.5021 18.0056 20.8222 18.0056 18.75C18.0056 16.6778 16.3257 14.9979 14.2535 14.9979ZM9.66768 18.75C9.66768 16.2173 11.7208 14.1641 14.2535 14.1641C16.7862 14.1641 18.8394 16.2173 18.8394 18.75C18.8394 21.2827 16.7862 23.3359 14.2535 23.3359C11.7208 23.3359 9.66768 21.2827 9.66768 18.75ZM4.66492 18.75C4.66492 18.5198 4.85157 18.3331 5.08181 18.3331H6.7494C6.97965 18.3331 7.1663 18.5198 7.1663 18.75C7.1663 18.9802 6.97965 19.1669 6.7494 19.1669H5.08181C4.85157 19.1669 4.66492 18.9802 4.66492 18.75ZM21.3408 18.75C21.3408 18.5198 21.5274 18.3331 21.7577 18.3331H23.4253C23.6555 18.3331 23.8422 18.5198 23.8422 18.75C23.8422 18.9802 23.6555 19.1669 23.4253 19.1669H21.7577C21.5274 19.1669 21.3408 18.9802 21.3408 18.75ZM9.2454 23.7581C9.40821 23.9209 9.40821 24.1849 9.2454 24.3477L8.06142 25.5317C7.89861 25.6945 7.63465 25.6945 7.47184 25.5317C7.30903 25.3689 7.30903 25.1049 7.47184 24.9421L8.65582 23.7581C8.81863 23.5953 9.0826 23.5953 9.2454 23.7581ZM19.2617 23.7581C19.4245 23.5953 19.6884 23.5953 19.8513 23.7581L21.0352 24.9421C21.198 25.1049 21.198 25.3689 21.0352 25.5317C20.8724 25.6945 20.6085 25.6945 20.4457 25.5317L19.2617 24.3477C19.0989 24.1849 19.0989 23.9209 19.2617 23.7581ZM14.2535 25.8372C14.4838 25.8372 14.6704 26.0239 14.6704 26.2541V27.9217C14.6704 28.152 14.4838 28.3386 14.2535 28.3386C14.0233 28.3386 13.8366 28.152 13.8366 27.9217V26.2541C13.8366 26.0239 14.0233 25.8372 14.2535 25.8372Z" fill="white"/>
<circle cx="14.2533" cy="120.473" r="10.0055" fill="white"/>
<defs>
<filter id="filter0_b_896_3426" x="-22.5859" y="-22.2583" width="73.6787" height="285.462" filterUnits="userSpaceOnUse" color-interpolation-filters="sRGB">
<feFlood flood-opacity="0" result="BackgroundImageFix"/>
<feGaussianBlur in="BackgroundImageFix" stdDeviation="11.3324"/>
<feComposite in2="SourceAlpha" operator="in" result="effect1_backgroundBlur_896_3426"/>
<feBlend mode="normal" in="SourceGraphic" in2="effect1_backgroundBlur_896_3426" result="shape"/>
</filter>
</defs>
</svg>
