<svg width="29" height="241" viewBox="0 0 29 241" fill="none" xmlns="http://www.w3.org/2000/svg">
<g filter="url(#filter0_b_896_3418)">
<path fill-rule="evenodd" clip-rule="evenodd" d="M0.0484619 13.7472C0.0484619 9.07756 0.0484619 6.74272 0.957242 4.95914C1.75663 3.39026 3.03217 2.11472 4.60105 1.31534C6.38463 0.406555 8.71947 0.406555 13.3891 0.406555H15.0567C19.7264 0.406555 22.0613 0.406555 23.8448 1.31534C25.4137 2.11472 26.6893 3.39026 27.4886 4.95914C28.3974 6.74272 28.3974 9.07756 28.3974 13.7472V227.198C28.3974 231.868 28.3974 234.203 27.4886 235.986C26.6893 237.555 25.4137 238.831 23.8448 239.63C22.0613 240.539 19.7264 240.539 15.0567 240.539H13.3892C8.71947 240.539 6.38463 240.539 4.60105 239.63C3.03217 238.831 1.75663 237.555 0.957242 235.986C0.0484619 234.203 0.0484619 231.868 0.0484619 227.198V13.7472Z" fill="black" fill-opacity="0.364909"/>
</g>
<path fill-rule="evenodd" clip-rule="evenodd" d="M14.132 226.183C16.3842 226.183 18.21 224.357 18.21 222.105C18.21 219.852 16.3842 218.027 14.132 218.027C11.8798 218.027 10.054 219.852 10.054 222.105C10.054 224.357 11.8798 226.183 14.132 226.183ZM14.132 227.016C16.8447 227.016 19.0438 224.817 19.0438 222.105C19.0438 219.392 16.8447 217.193 14.132 217.193C11.4193 217.193 9.22021 219.392 9.22021 222.105C9.22021 224.817 11.4193 227.016 14.132 227.016Z" fill="white"/>
<path fill-rule="evenodd" clip-rule="evenodd" d="M14.1929 218.831C16.0013 218.831 17.4674 220.297 17.4674 222.105C17.4674 223.914 16.0013 225.38 14.1929 225.38V218.831Z" fill="white"/>
<rect x="13.3892" y="37.0936" width="1.66759" height="166.759" rx="0.833793" fill="#D1D1D6"/>
<circle cx="14.2228" cy="193.847" r="10.0055" fill="white"/>
<path fill-rule="evenodd" clip-rule="evenodd" d="M14.2229 10.412C18.8278 10.412 22.5609 14.1451 22.5609 18.75C22.5609 23.3549 18.8278 27.0879 14.2229 27.0879C9.61803 27.0879 5.88501 23.3549 5.88501 18.75C5.88501 14.1451 9.61803 10.412 14.2229 10.412ZM14.2229 11.2458C10.0785 11.2458 6.71879 14.6055 6.71879 18.75C6.71879 22.8944 10.0785 26.2541 14.2229 26.2541C18.3673 26.2541 21.7271 22.8944 21.7271 18.75C21.7271 14.6055 18.3673 11.2458 14.2229 11.2458ZM14.2229 12.9134H14.2229V24.5865H14.2229C10.9995 24.5865 8.38637 21.9734 8.38637 18.75C8.38637 15.5265 10.9995 12.9134 14.2229 12.9134Z" fill="#1EA1F3"/>
<defs>
<filter id="filter0_b_896_3418" x="-22.6164" y="-22.2583" width="73.6787" height="285.462" filterUnits="userSpaceOnUse" color-interpolation-filters="sRGB">
<feFlood flood-opacity="0" result="BackgroundImageFix"/>
<feGaussianBlur in="BackgroundImageFix" stdDeviation="11.3324"/>
<feComposite in2="SourceAlpha" operator="in" result="effect1_backgroundBlur_896_3418"/>
<feBlend mode="normal" in="SourceGraphic" in2="effect1_backgroundBlur_896_3418" result="shape"/>
</filter>
</defs>
</svg>
